<svg xmlns="http://www.w3.org/2000/svg" width="621" height="886" viewBox="0 0 621 886" version="1.1"><path d="M 434.754 10.364 C 432.694 11.132, 429.158 13.558, 426.896 15.753 C 423.562 18.989, 422.685 20.618, 422.264 24.352 C 421.571 30.501, 425.071 37.645, 432.454 45.146 C 438.452 51.240, 438.603 51.771, 436.690 60 C 435.292 66.017, 435.921 72.131, 438.463 77.227 C 439.313 78.931, 439.894 80.379, 439.754 80.446 C 439.614 80.513, 437.700 81.180, 435.500 81.929 C 430.481 83.637, 420.857 90.095, 418.092 93.610 C 414.508 98.166, 413.525 103.261, 414.675 111.310 C 415.576 117.614, 415.474 118.957, 413.851 122.210 C 411.616 126.689, 411.490 131.499, 413.506 135.364 C 414.328 136.940, 415 138.395, 415 138.597 C 415 138.800, 412.696 140.134, 409.879 141.561 C 404.528 144.273, 400 144.252, 400 141.516 C 400 140.720, 398.635 138.515, 396.966 136.615 C 395.143 134.537, 394.348 132.903, 394.974 132.516 C 395.546 132.163, 396.704 130.539, 397.547 128.909 C 399.584 124.969, 398.594 120.022, 394.816 115.269 C 392.096 111.846, 391.907 111.097, 392.475 106.022 C 392.988 101.437, 392.703 99.746, 390.797 96.059 C 387.373 89.437, 384.497 87.794, 375.316 87.216 C 369.014 86.819, 366.952 86.267, 364.673 84.362 C 361.006 81.298, 358.004 80.602, 351.679 81.352 C 346.563 81.958, 346.487 81.926, 341.512 77.071 C 329.436 65.287, 311.473 54.427, 296.500 49.857 C 285.500 46.500, 285.500 46.500, 261 46.500 C 238.401 46.500, 235.802 46.684, 227.500 48.876 C 209.310 53.677, 194.764 61.993, 181.980 74.899 C 165.903 91.128, 152.534 109.665, 146.408 124.219 C 140.440 138.398, 134.414 160.377, 130.977 180.500 C 128.961 192.306, 131.073 213.454, 135.532 226.090 C 136.339 228.379, 137 231.326, 137 232.639 C 137 233.953, 137.436 235.809, 137.969 236.764 C 138.502 237.719, 140.081 242.249, 141.478 246.830 C 143.949 254.934, 143.970 255.247, 142.259 258.330 C 140.154 262.124, 139.125 262.964, 136.562 262.985 C 133.895 263.006, 128.522 266.846, 126.595 270.109 C 125.718 271.594, 125 274.861, 125 277.369 C 125 281.027, 125.604 282.618, 128.048 285.402 C 129.724 287.311, 132.082 289.014, 133.288 289.187 C 135.124 289.449, 135.605 290.392, 136.253 295 C 136.679 298.025, 137.867 301.625, 138.895 303 C 140.546 305.211, 141.466 305.489, 146.838 305.406 C 152.510 305.318, 152.974 305.484, 153.839 307.906 C 155.141 311.553, 158.169 314.734, 161.574 316.028 C 169.217 318.934, 176.343 313.245, 178.292 302.681 C 179.174 297.905, 180.131 295.597, 181.679 294.513 C 185.448 291.873, 188 286.632, 188 281.532 C 188 277.447, 187.516 276.316, 184.461 273.261 C 182.514 271.314, 180.991 268.997, 181.076 268.111 C 181.641 262.215, 178.181 256.809, 172.259 254.335 C 169.323 253.108, 168.500 253.143, 165.369 254.629 C 161.322 256.549, 160.043 255.649, 160.015 250.859 C 159.987 245.978, 164.982 228.985, 168.498 222.004 C 171.749 215.549, 177.926 208, 179.957 208 C 180.446 208, 182.119 209.063, 183.673 210.363 C 185.228 211.663, 187.512 213.043, 188.750 213.431 C 189.988 213.818, 191 214.801, 191 215.615 C 191 218.427, 196.050 222, 200.025 222 C 203.232 222, 203.933 222.424, 205.004 225.011 C 206.127 227.720, 205.989 228.419, 203.626 231.989 C 200.127 237.277, 200.124 243.063, 203.617 249.601 C 206.235 254.500, 206.235 254.500, 204.509 261.194 C 203.334 265.753, 202.901 270.493, 203.154 276.049 C 203.501 283.704, 203.709 284.358, 206.512 286.614 C 208.155 287.937, 210.636 289.531, 212.025 290.155 C 214.551 291.289, 214.551 291.289, 212.255 295.929 C 210.992 298.480, 209.431 303.407, 208.786 306.878 C 207.652 312.970, 207.342 313.438, 199.730 320.509 C 189.594 329.926, 179.617 335.169, 158.749 342.046 C 151.997 344.271, 151.997 344.271, 147.041 339.635 C 142.485 335.373, 141.674 335, 136.977 335 C 134.167 335, 130.886 335.530, 129.684 336.179 C 128.483 336.827, 124.034 337.389, 119.798 337.429 C 112.305 337.498, 111.993 337.601, 108.298 341.202 C 104.855 344.558, 104.016 344.893, 99.332 344.784 C 90.531 344.577, 86.244 349.223, 85.264 360.025 C 84.747 365.726, 84.747 365.726, 80.124 365.310 C 69.446 364.351, 67.078 363.133, 58.037 353.953 C 44.681 340.393, 37.745 338.350, 28.058 345.124 C 15.786 353.707, 13.659 357.284, 13.568 369.500 C 13.512 376.880, 13.886 379.220, 15.645 382.500 C 18.598 388.005, 26.393 395.452, 31.367 397.521 C 40.911 401.490, 40.806 400.419, 32.463 408.763 C 11.331 429.894, 2.762 450.453, 5.062 474.500 C 7.149 496.327, 11.158 507.288, 20.453 516.583 C 36.292 532.422, 62.174 536.310, 88.360 526.784 C 100.361 522.418, 109.292 510.648, 113.869 493.164 C 116.205 484.244, 118.787 481.284, 128.834 476.017 C 135.863 472.332, 136.309 472.231, 139.552 473.586 C 144.529 475.666, 149.232 475.331, 153.236 472.614 C 155.555 471.041, 157.220 470.525, 158.126 471.099 C 161.823 473.441, 170.794 470.954, 175.270 466.346 C 178.087 463.446, 179.148 463.020, 183.568 463.011 C 186.356 463.005, 190.856 462.363, 193.568 461.584 C 196.281 460.805, 200.479 459.855, 202.898 459.471 C 205.317 459.088, 208.811 458.141, 210.663 457.367 C 214.030 455.961, 214.030 455.961, 213.265 460.230 C 211.823 468.277, 212.396 477.216, 214.629 481.504 C 216.709 485.500, 216.709 485.500, 213.721 491.214 C 211.322 495.800, 210.699 498.307, 210.564 503.916 C 210.371 511.936, 209.779 512.873, 200.609 519.676 C 196.621 522.634, 194.111 523.853, 192.839 523.449 C 191.806 523.121, 188.725 523.595, 185.993 524.502 C 180.131 526.449, 174.911 531.962, 172.359 538.901 C 170.211 544.738, 167.902 547.300, 161.566 550.876 C 155.098 554.526, 150.416 559.298, 147.708 565 C 145.967 568.665, 145.571 571.356, 145.571 579.500 C 145.572 590.632, 147.136 595.358, 153.261 602.741 C 155.042 604.888, 157.395 607.851, 158.489 609.325 C 159.583 610.798, 162.508 613.442, 164.989 615.201 C 167.470 616.959, 169.725 618.650, 170 618.958 C 170.879 619.944, 177.265 622.857, 185.500 626.027 C 189.900 627.721, 195.246 630.252, 197.380 631.653 C 201.260 634.200, 201.260 634.200, 200.630 640.100 C 200.283 643.345, 199.716 648.661, 199.369 651.914 C 198.738 657.828, 198.738 657.828, 192.605 657.875 C 175.086 658.010, 161.175 670.466, 159.521 687.500 C 159.201 690.800, 158.680 695.988, 158.364 699.030 C 157.964 702.877, 158.258 705.683, 159.332 708.253 C 160.475 710.988, 160.632 712.796, 159.938 715.217 C 158.649 719.712, 158.794 725.318, 160.399 732.979 C 162.009 740.667, 162.362 740.232, 150.598 745.042 C 134.526 751.613, 123.834 766.956, 118.305 791.385 C 115.930 801.882, 115.972 831.232, 118.376 839.942 C 121.770 852.237, 125.452 858.741, 133.502 866.662 C 137.626 870.719, 141 874.480, 141 875.020 C 141 875.559, 142.377 876, 144.059 876 C 145.844 876, 146.861 876.417, 146.500 877 C 146.093 877.658, 156.323 878, 176.441 878 C 193.248 878, 207 877.633, 207 877.185 C 207 876.737, 208.483 875.663, 210.294 874.799 C 217.090 871.559, 224.722 863.300, 228.889 854.679 C 235.031 841.969, 236.226 836.757, 238.024 814.824 C 238.596 807.853, 239.713 799.961, 240.507 797.288 C 241.916 792.544, 242.050 792.423, 246.057 792.263 C 251.092 792.062, 258.312 788.699, 260.335 785.612 C 261.486 783.855, 262.525 783.423, 264.803 783.758 C 268.561 784.309, 283.926 780.376, 286.259 778.266 C 287.226 777.390, 288.527 774.973, 289.150 772.893 C 289.965 770.173, 291.441 768.379, 294.408 766.504 C 301.248 762.180, 303.174 758.412, 303.390 748.928 C 303.576 740.778, 303.576 740.778, 312.538 738.497 C 321.527 736.210, 324.515 735.188, 337.500 729.962 C 348.997 725.335, 354.106 722.755, 362 717.589 C 387.510 700.895, 384.755 702.290, 393.565 701.608 C 398.112 701.256, 405.953 699.633, 411.539 697.887 C 422.223 694.547, 428.012 694.468, 432.785 697.595 C 435.199 699.177, 435.199 699.177, 432.243 702.066 C 430.476 703.794, 428.596 707.277, 427.568 710.728 C 426.622 713.903, 424.783 719.493, 423.482 723.152 C 421.115 729.803, 421.115 729.803, 423.058 733.613 C 424.126 735.708, 425 738.257, 425 739.277 C 425 741.941, 426.831 744.987, 430.073 747.715 C 431.624 749.020, 433.187 751.081, 433.547 752.294 C 433.906 753.507, 435.323 756.161, 436.695 758.190 C 439.189 761.881, 439.189 761.881, 436.974 764.190 C 433.812 767.488, 431.046 773.919, 431.034 778 C 431.028 779.925, 431.657 783.879, 432.431 786.788 C 433.374 790.328, 433.550 793.082, 432.965 795.121 C 430.961 802.111, 436.169 813.077, 444.516 819.444 C 451.260 824.588, 475.977 831.153, 480.164 828.912 C 481.174 828.372, 482.007 827.608, 482.015 827.215 C 482.024 826.822, 482.429 825.871, 482.916 825.102 C 483.625 823.982, 484.668 824.399, 488.151 827.195 C 505.275 840.945, 526.247 847.227, 554.500 847.071 C 569.510 846.987, 578.220 846.122, 586.500 843.892 C 602.163 839.674, 612.350 832.128, 618.072 820.505 C 621.023 814.512, 621.177 813.631, 620.823 804.827 C 620.506 796.927, 619.993 794.592, 617.474 789.563 C 609.226 773.099, 591.766 763.654, 566.525 762.002 C 559.700 761.555, 553.621 760.884, 553.017 760.511 C 552.321 760.080, 553.190 758.426, 555.393 755.987 C 558.594 752.443, 560.981 746.853, 560.994 742.865 C 560.997 741.966, 562.237 740.445, 563.750 739.486 C 577.313 730.882, 579.990 717.078, 570.259 705.927 C 567.864 703.182, 567.173 701.323, 566.788 696.585 C 566.360 691.304, 565.905 690.301, 562.547 687.223 C 558.785 683.776, 558.785 683.776, 561.340 678.558 C 569.175 662.557, 573.998 644.771, 573.999 631.870 C 574 625.284, 574.028 625.218, 578.250 621.758 C 580.923 619.568, 583.594 615.987, 585.447 612.112 C 587.067 608.722, 590.217 604.026, 592.446 601.677 C 595.136 598.842, 597.459 594.843, 599.349 589.789 C 602.456 581.484, 602.349 579.014, 598.440 568.867 C 596.688 564.320, 596.698 564.085, 598.951 556.171 C 601.057 548.776, 601.145 547.546, 600.018 541.304 C 597.622 528.037, 592.275 519.694, 584.061 516.408 C 581.656 515.446, 577.322 512.373, 574.431 509.579 C 569.173 504.500, 569.173 504.500, 569.974 499.500 C 570.415 496.750, 570.546 493.056, 570.264 491.292 C 569.870 488.822, 570.350 487.373, 572.351 484.994 C 577.941 478.351, 579.442 466.217, 575.954 455.863 C 573.845 449.603, 573.507 448.967, 566.447 438 C 562.744 432.248, 560.814 427.621, 558.524 419 C 558.159 417.625, 557.464 409.300, 556.981 400.500 C 555.950 381.699, 554.183 374.233, 547.743 361.453 C 540.409 346.899, 532.478 335.760, 512.330 311.716 C 502.790 300.332, 498.097 286.352, 499.522 273.568 C 499.894 270.231, 502.224 261.650, 504.700 254.500 C 510.942 236.473, 515.631 220.689, 517.029 213 C 518.640 204.142, 518.439 192.534, 516.570 186.500 C 514.275 179.089, 514.528 176.710, 517.820 174.765 C 521.428 172.634, 527.138 167.148, 528.750 164.264 C 529.438 163.034, 530 159.944, 530 157.399 C 530 154.298, 530.864 151.183, 532.617 147.962 C 536.339 141.124, 535.813 131.875, 531.202 123.080 C 529.416 119.672, 528.220 116.453, 528.545 115.927 C 529.589 114.238, 536.261 111.320, 545.500 108.512 C 567.581 101.799, 585.183 88.678, 592.602 73.402 C 596.259 65.873, 596.441 65.028, 596.470 55.500 C 596.498 46.005, 596.316 45.121, 592.855 38 C 586.383 24.682, 578.898 18.259, 564.298 13.498 C 560.145 12.143, 556.417 11.883, 545.798 12.207 C 534.043 12.565, 531.340 12.998, 522.500 15.932 C 512.126 19.376, 493.574 28.137, 486.339 33.010 C 482.178 35.812, 482.178 35.812, 478.991 29.832 C 475.498 23.278, 468.477 17.337, 458.393 12.404 C 451.676 9.117, 440.646 8.166, 434.754 10.364 M 432.708 19.239 C 430.167 21.635, 429 23.607, 429 25.502 C 429 29.863, 431.133 35.859, 433.545 38.281 C 434.761 39.502, 437.385 42.455, 439.378 44.845 C 443 49.189, 443 49.189, 443 59.659 C 443 68.124, 443.408 71.077, 445.129 75.078 C 447.838 81.376, 449.785 81.890, 459.873 78.975 C 469.094 76.311, 471.641 76.603, 481.845 81.493 C 485.840 83.407, 491.737 85.397, 494.950 85.915 C 506.687 87.805, 515.896 94.302, 520.351 103.836 C 523.911 111.454, 523.460 111.302, 530.288 107.202 C 537.910 102.624, 539.332 101.939, 550 97.704 C 574.278 88.066, 590.429 70.263, 590.103 53.500 C 589.935 44.870, 587.689 39.172, 581.889 32.665 C 572.554 22.192, 563.600 18.667, 546.500 18.735 C 536.603 18.774, 534.408 19.141, 524.615 22.392 C 514.631 25.706, 489.981 37.120, 485.695 40.414 C 484.039 41.686, 484.012 42.093, 485.361 45.323 C 486.171 47.260, 487.996 49.606, 489.416 50.537 C 492.140 52.321, 492.907 55, 490.694 55 C 487.058 55, 482.286 49.513, 477 39.253 C 471.019 27.645, 468.834 25.487, 457.463 19.950 C 453.192 17.871, 449.229 16.825, 443.921 16.376 C 436.416 15.742, 436.416 15.742, 432.708 19.239 M 250.704 53.629 C 250.585 53.749, 246.665 54.311, 241.994 54.880 C 228.150 56.564, 214.278 60.947, 204.500 66.727 C 200.490 69.096, 187.132 79.621, 183.986 82.889 C 180.356 86.659, 166.842 102.891, 163.911 107 C 159.845 112.701, 153 124.524, 153 125.845 C 153 126.519, 152.376 128.067, 151.613 129.285 C 150.849 130.503, 149.664 133.975, 148.978 137 C 148.293 140.025, 147.182 143.625, 146.509 145 C 144.763 148.571, 141.408 161.843, 139.304 173.500 C 138.048 180.462, 137.527 188.056, 137.589 198.500 C 137.684 214.566, 138.476 218.924, 145.267 240.750 C 148.457 251, 148.457 251, 152.090 251 C 155.724 251, 155.724 251, 156.397 244.433 C 157.101 237.559, 158.932 231.194, 162.112 224.562 C 163.150 222.396, 164 220.239, 164 219.767 C 164 218.655, 173.091 205.359, 176.426 201.594 C 179.315 198.333, 179.888 192.982, 177.555 191.046 C 176.760 190.386, 175.586 187.324, 174.946 184.241 C 173.893 179.168, 173.996 178.108, 176.033 173.068 C 177.270 170.006, 179.125 166.088, 180.154 164.362 C 182.244 160.856, 181.348 159.828, 176.937 160.672 C 173.436 161.341, 167.585 157.169, 167.184 153.718 C 166.806 150.473, 167.369 150.359, 170.727 153 C 173.598 155.258, 180.194 155.707, 181.746 153.750 C 182.291 153.063, 182.975 147.085, 183.264 140.467 C 183.809 128.029, 185.783 120.405, 188.236 121.270 C 188.931 121.515, 189.378 122.567, 189.228 123.608 C 188.238 130.489, 187.841 141.453, 188.437 145.428 C 189.141 150.125, 189.141 150.125, 193.422 146.312 C 199.711 140.711, 215.640 130.049, 217.764 130.018 C 218.459 130.008, 219.809 129.573, 220.764 129.052 C 221.719 128.530, 226.139 126.703, 230.586 124.991 C 243.183 120.141, 245 118.770, 245 114.118 C 245 110.893, 245.620 109.663, 248.537 107.101 C 253.945 102.353, 258.195 101, 267.699 101 C 275.592 101, 276.336 100.817, 278.894 98.250 C 280.401 96.737, 282.054 94.813, 282.567 93.973 C 283.815 91.931, 290.807 86.711, 294.331 85.191 C 299.628 82.905, 309.649 82.151, 322.985 83.036 C 339.638 84.140, 340.538 83.824, 334.872 78.862 C 332.468 76.755, 330.198 75.024, 329.829 75.016 C 329.460 75.007, 325.635 72.816, 321.329 70.146 C 304.250 59.557, 293.105 55.698, 275 54.104 C 264.303 53.162, 251.423 52.911, 250.704 53.629 M 505.365 62.953 C 500.913 64.015, 496 67.783, 496 70.135 C 496 72.505, 498.396 72.056, 504 68.636 C 507.380 66.573, 512.420 66.206, 523 67.253 C 524.644 67.415, 525.500 66.997, 525.500 66.032 C 525.500 63.033, 513.026 61.125, 505.365 62.953 M 462.546 84.836 C 460.921 85.021, 458.766 85.751, 457.756 86.458 C 456.456 87.369, 453.378 87.602, 447.210 87.257 C 437.066 86.689, 431.422 87.932, 426.909 91.730 C 421.424 96.345, 418.281 107.222, 420.271 114.702 C 421.169 118.077, 421.105 119.436, 419.945 121.604 C 418.144 124.968, 418.066 132.169, 419.807 134.267 C 420.981 135.682, 421.713 135.544, 427.006 132.918 C 438.909 127.013, 449.886 125.979, 462 129.624 C 464.475 130.369, 468.300 130.993, 470.500 131.011 C 476.023 131.056, 482.198 134.092, 485.623 138.446 C 487.205 140.457, 491.425 143.673, 495 145.591 C 502.523 149.629, 507.333 155.692, 510.993 165.750 C 512.244 169.188, 513.588 172, 513.978 172 C 515.405 172, 519.815 167.416, 521.386 164.300 C 522.274 162.539, 523 159.098, 523 156.651 C 523 153.643, 523.971 150.357, 526 146.500 C 529.793 139.289, 530.046 132.413, 526.750 126.147 C 521.360 115.903, 511.929 101.241, 508.809 98.257 C 505.951 95.523, 504.403 94.909, 498.959 94.349 C 494.280 93.868, 490.296 92.561, 484.500 89.607 C 476.579 85.570, 469.540 84.040, 462.546 84.836 M 351 88.214 C 349.075 88.769, 337.375 89.298, 325 89.388 C 298.718 89.581, 294.667 90.438, 287.615 97.299 C 285.240 99.609, 282.826 102.373, 282.252 103.441 C 281.353 105.111, 279.687 105.471, 270.324 106.023 C 262.672 106.474, 258.677 107.165, 256.868 108.351 C 254.142 110.137, 251.472 114.720, 250.544 119.207 C 250.054 121.571, 247.799 122.983, 232.742 130.351 C 212.464 140.274, 205.322 144.753, 198.125 152.065 C 186.059 164.323, 179.054 183.314, 184.230 189.740 C 184.826 190.481, 186.234 190.728, 187.722 190.355 C 191.469 189.415, 192.163 191.671, 189.386 195.764 C 188.074 197.697, 187 199.894, 187 200.646 C 187 203.192, 191.997 206.500, 195.843 206.500 C 199.711 206.500, 200.349 207.937, 198.467 212.409 C 197.724 214.176, 198.011 214.270, 202.323 213.679 C 209.380 212.712, 214.248 208.863, 220.588 199.236 C 223.670 194.556, 227.343 188.651, 228.749 186.113 C 238.998 167.624, 245.753 158.929, 259.909 146 C 264.360 141.936, 277.866 136.262, 292 132.520 C 303.108 129.579, 311.522 129.352, 342.616 131.156 C 367.108 132.577, 383.201 131.418, 388.179 127.873 C 390.939 125.907, 391.181 125.301, 390.746 121.443 C 390.482 119.100, 389.306 115.835, 388.133 114.187 C 386.592 112.023, 386 109.700, 386 105.818 C 386 99.410, 384.399 96.754, 378.820 93.908 C 375.601 92.266, 373.775 91.981, 369.895 92.514 C 365.480 93.122, 364.617 92.892, 360.811 90.093 C 356.252 86.740, 356.168 86.724, 351 88.214 M 439.915 134.444 C 434.314 135.989, 419.334 143.231, 416.250 145.885 C 413.463 148.283, 413.440 149.183, 416.102 151.593 C 417.259 152.639, 418.794 154.634, 419.513 156.026 C 420.233 157.418, 422.887 159.588, 425.411 160.848 C 427.935 162.109, 430 163.462, 430 163.855 C 430 164.247, 431.259 165.312, 432.797 166.221 C 435.574 167.862, 436.707 169.590, 438.984 175.662 C 439.658 177.458, 442.723 180.871, 446.082 183.566 C 452.455 188.678, 457.717 194.999, 463.507 204.500 C 466.883 210.040, 467.126 210.950, 466.666 216.365 C 466.207 221.782, 466.421 222.584, 469.465 226.865 C 476.422 236.649, 479.967 246.353, 479.988 255.673 C 479.998 259.807, 479.473 261.473, 477.378 263.962 C 474.756 267.078, 474.756 267.078, 476.851 273.289 C 482.622 290.404, 484.659 307.001, 481.811 313.703 C 480.256 317.363, 476.004 322, 474.204 322 C 473.058 322, 472.868 323.507, 473.229 329.750 C 474.026 343.578, 471.046 357.762, 465.683 365.665 C 462.500 370.354, 462.500 370.354, 467.750 380.898 C 470.637 386.697, 473 392.733, 473 394.311 C 473 396.445, 474.281 398.416, 478 402 C 482.095 405.946, 483 407.441, 483 410.255 C 483 412.476, 483.743 414.362, 485.102 415.593 C 489.835 419.876, 491.788 427.684, 489.667 433.842 C 488.349 437.665, 488.425 438.173, 491.136 443.686 C 494.694 450.922, 496.256 458.929, 495.425 465.676 C 494.788 470.851, 494.788 470.851, 498.939 472.969 C 504.680 475.898, 510.498 481.371, 515.145 488.214 C 519.061 493.980, 520.315 494.918, 521.514 492.978 C 521.861 492.415, 524.712 490.660, 527.849 489.076 C 532.438 486.760, 536.143 485.899, 546.811 484.670 C 561.728 482.953, 565.397 481.447, 568.466 475.785 C 570.432 472.157, 570.432 472.157, 568.128 462.602 C 566.861 457.346, 565.046 452.024, 564.094 450.773 C 558.400 443.295, 551.945 424.276, 549.439 407.596 C 546.841 390.298, 543.418 378.973, 536.419 364.519 C 532.807 357.062, 528.400 349.057, 526.624 346.730 C 524.849 344.404, 522.102 340.122, 520.521 337.216 C 518.939 334.310, 513.228 327.110, 507.830 321.216 C 502.431 315.322, 496.569 307.800, 494.802 304.500 C 492.001 299.267, 491.537 297.312, 491.174 289.205 C 490.672 277.998, 491.833 271.615, 497.522 254.292 C 499.909 247.028, 503.513 234.433, 505.532 226.304 C 508.875 212.845, 509.216 210.181, 509.346 196.511 C 509.469 183.641, 509.160 180.300, 507.182 173.087 C 503.246 158.737, 499.129 152.734, 490.699 149.051 C 488.390 148.042, 484.728 145.375, 482.562 143.124 C 478.675 139.083, 472.972 136.281, 471.051 137.468 C 470.508 137.804, 466.753 136.936, 462.707 135.539 C 454.590 132.738, 447.359 132.390, 439.915 134.444 M 290.714 138.081 C 266.701 144.916, 251.922 158.034, 236.023 186.624 C 230.028 197.403, 230.028 197.403, 234.014 199.231 C 237.386 200.777, 238 201.526, 238 204.095 C 238 211.492, 241.137 212.892, 249.310 209.143 C 252.714 207.581, 257.750 205.739, 260.500 205.048 C 271.478 202.291, 271.751 202.141, 272.436 198.492 C 273.708 191.709, 277.068 193.065, 277.955 200.718 C 278.409 204.645, 279.052 205.799, 281.823 207.664 C 292.484 214.836, 318.219 209.319, 331.049 197.110 C 336.821 191.617, 337 191.291, 337 186.270 C 337 181.434, 336.737 180.883, 333 177.880 C 330.800 176.112, 329 174.066, 329 173.333 C 329 171.514, 333.497 171.640, 335.368 173.511 C 336.716 174.859, 337.581 174.497, 343.386 170.158 C 346.964 167.483, 353.286 163.991, 357.434 162.397 C 366.098 159.069, 366.778 157.593, 361.500 153.568 C 358.138 151.003, 358 150.644, 358 144.449 C 358 138.097, 357.959 137.999, 355.250 137.932 C 353.738 137.894, 348.450 137.711, 343.500 137.525 C 304.079 136.044, 297.632 136.112, 290.714 138.081 M 379.500 137 C 377.850 137.420, 373.731 137.817, 370.347 137.882 C 364.193 138, 364.193 138, 363.779 143.250 C 363.406 147.975, 363.647 148.770, 366.187 151.198 C 367.740 152.682, 369.447 155.045, 369.980 156.448 C 370.819 158.655, 371.596 159.021, 375.725 159.158 C 378.351 159.246, 381.292 159.250, 382.259 159.169 C 384.992 158.938, 398.808 163.854, 403.174 166.610 C 405.331 167.971, 407.358 169.770, 407.679 170.606 C 408.679 173.211, 406.228 176.878, 402.425 178.467 C 399.708 179.602, 398.944 180.411, 399.419 181.651 C 400.514 184.504, 397.154 192.444, 393.231 196.273 C 389.832 199.590, 382.808 203, 379.374 203 C 378.618 203, 378 202.096, 378 200.991 C 378 199.657, 379.677 197.949, 382.988 195.913 C 390.008 191.593, 392.143 188.236, 392.143 181.515 C 392.143 176.039, 392.143 176.039, 396.029 174.992 C 400.755 173.720, 401.488 172.743, 399.226 170.733 C 395.207 167.162, 389.657 165.813, 378.500 165.697 C 366.698 165.575, 363.334 166.377, 351.500 172.137 C 342.905 176.320, 340.617 178.416, 341.942 180.892 C 343.515 183.831, 343.222 191.729, 341.397 195.575 C 338.997 200.634, 333.072 205.441, 323.013 210.494 C 303.590 220.248, 286.857 220.440, 276.642 211.024 C 272.559 207.260, 272.405 207.211, 269.122 208.591 C 267.279 209.366, 265.101 210, 264.283 210 C 263.464 210, 259.010 211.774, 254.384 213.941 C 247.883 216.988, 244.289 219.542, 238.553 225.191 C 231.117 232.514, 229.267 235.945, 230.375 240.359 C 230.871 242.333, 231.789 242.815, 236.007 243.314 C 242.376 244.069, 243.279 244.611, 242.035 246.935 C 241.300 248.309, 241.551 249.189, 243.072 250.565 C 244.636 251.980, 246.781 252.390, 252.789 252.421 C 257.030 252.443, 261.738 252.124, 263.250 251.712 C 265.547 251.085, 266 251.274, 266 252.858 C 266 254.188, 264.457 255.418, 260.830 256.978 C 256.633 258.783, 254.262 259.131, 248.222 258.826 C 241.375 258.480, 240.596 258.214, 238.419 255.475 C 233.825 249.696, 232.975 249, 230.513 249 C 227.329 249, 223 242.471, 223 237.670 C 223 233.690, 226.663 227.862, 233.612 220.785 C 237.530 216.795, 238.181 215.669, 236.983 214.949 C 233.157 212.648, 232.676 211.952, 232.558 208.536 C 232.438 205.082, 230.896 203.050, 228.370 203.015 C 227.749 203.007, 225.418 205.414, 223.191 208.363 C 220.964 211.313, 217.085 215.026, 214.572 216.613 C 210.241 219.350, 208.795 222.137, 211 223.500 C 212.652 224.521, 212.132 228.563, 210 231.273 C 206.760 235.391, 207.335 240.535, 211.500 244.700 C 215.103 248.303, 215.698 249.901, 214.051 251.550 C 212.312 253.290, 210.766 270.418, 211.951 274.818 C 213.126 279.183, 218.399 284.560, 222.518 285.594 C 225.601 286.368, 225.607 287.016, 222.573 291.488 C 218.756 297.113, 216.821 307.340, 218.108 315.097 C 220.636 330.335, 227.895 337.975, 239.867 337.994 C 243.624 338.001, 243.570 336.948, 240.416 348.686 C 238.878 354.410, 238.875 355.407, 240.368 362.019 C 242.251 370.355, 244.620 374.117, 249.422 376.396 C 255.174 379.125, 261.111 378.854, 265.969 375.639 C 270.626 372.558, 272.998 372.753, 273.004 376.219 C 273.017 384.341, 287.320 394.451, 300.544 395.686 C 308.110 396.393, 310.689 395.177, 311.568 390.488 C 312.416 385.969, 313.930 386.085, 317.858 390.973 C 326.749 402.037, 351.252 407.816, 359.817 400.869 C 361.423 399.566, 363.963 396.588, 365.461 394.250 C 368.029 390.241, 371.116 388.760, 372.439 390.902 C 372.746 391.397, 375.428 393.417, 378.401 395.390 C 390.279 403.274, 407.245 403.956, 418.499 397.001 C 424.461 393.316, 434.492 375.546, 435.874 366.220 C 436.462 362.254, 436.887 361.556, 438.537 361.849 C 439.616 362.041, 444.221 362.425, 448.768 362.703 C 460.636 363.426, 462.324 361.989, 464.859 349 C 467.292 336.539, 467.178 328.526, 464.352 313.097 C 463.728 309.694, 463.728 309.694, 467.279 310.270 C 473.173 311.227, 474.508 308.787, 474.462 297.145 C 474.414 285.087, 470.350 268.746, 464.915 258.754 C 462.405 254.142, 463.085 252.850, 467.830 253.217 C 471.500 253.500, 471.500 253.500, 471.342 248.797 C 471.092 241.351, 460.338 222.209, 453.771 217.522 C 451.566 215.948, 451.555 215.860, 453.392 214.487 C 454.432 213.709, 455.765 212.912, 456.354 212.715 C 458.023 212.159, 455.477 204.913, 451.653 199.340 C 447.862 193.814, 440.888 188.138, 433.250 184.361 C 427.686 181.610, 427.012 180.652, 429.614 179.196 C 430.714 178.580, 431.011 177.611, 430.548 176.150 C 429.731 173.578, 419.190 165.859, 413.250 163.483 C 409.155 161.845, 407.410 159, 410.500 159 C 416.790 159, 404.274 149.983, 394.720 147.631 C 392.258 147.025, 391.969 146.537, 392.183 143.355 C 392.594 137.256, 387.845 134.877, 379.500 137 M 305.223 139.557 C 303.148 141.010, 302.284 143.951, 303.558 145.225 C 303.865 145.531, 305.417 145.291, 307.008 144.691 C 309.413 143.783, 310.242 143.909, 311.931 145.438 C 313.555 146.908, 314.255 147.033, 315.422 146.065 C 317.398 144.425, 316.450 142.441, 312.533 140.020 C 308.603 137.592, 308.076 137.558, 305.223 139.557 M 305.896 153.104 C 302.300 156.700, 305.067 164.432, 311.059 167.531 C 314.887 169.510, 317.457 168.725, 318.950 165.120 C 320.482 161.422, 319.559 158.126, 315.892 154.203 C 312.388 150.453, 308.927 150.073, 305.896 153.104 M 261.409 158.507 C 261.014 160.078, 261.389 161.945, 262.413 163.507 C 264.474 166.652, 266 166.701, 266 163.622 C 266 162.291, 266.956 160.609, 268.171 159.803 C 271.075 157.874, 269.739 156, 265.460 156 C 262.641 156, 261.927 156.442, 261.409 158.507 M 268.884 165.893 C 265.541 168.600, 265.710 174.452, 269.287 179.857 C 271.699 183.502, 272.484 184, 275.814 184 C 280.929 184, 282 182.598, 282 175.904 C 282 170.635, 281.735 169.974, 278.465 167.104 C 274.386 163.522, 272.159 163.241, 268.884 165.893 M 352.853 212.607 C 343.597 229.006, 327.968 236.651, 304.848 236.089 C 301.699 236.012, 301.047 235.574, 300.118 232.910 C 298.894 229.397, 296.676 229.450, 296.157 233.005 C 295.606 236.784, 293.238 239.589, 288.978 241.510 C 284.847 243.373, 284.014 244.684, 286.383 245.594 C 288.009 246.217, 294.680 243.600, 297.142 241.372 C 299.245 239.469, 300.822 239.888, 312 245.317 C 319.863 249.136, 321.127 249.448, 328.872 249.473 C 337.244 249.500, 337.244 249.500, 341.526 244.637 C 344.516 241.240, 346.741 237.169, 348.903 231.137 C 350.606 226.387, 353.562 219.400, 355.473 215.611 C 358.750 209.111, 359.112 207, 356.950 207 C 356.437 207, 354.593 209.523, 352.853 212.607 M 349.158 252.552 C 347.971 255.157, 342.687 258, 339.032 258 C 337.914 258, 337 258.655, 337 259.455 C 337 261.166, 342.834 262.509, 346.391 261.617 C 350.515 260.582, 355.315 250, 351.661 250 C 350.924 250, 349.798 251.148, 349.158 252.552 M 149.837 256.250 C 146.453 258.988, 145.249 262.027, 145.757 266.541 C 146.306 271.404, 145.497 272.010, 141.715 269.573 C 138.516 267.513, 134.220 268.674, 132.462 272.074 C 129.120 278.537, 131.758 282.621, 139.986 283.725 C 145.070 284.407, 145.497 285.099, 142.883 288.422 C 140.541 291.399, 140.871 296.818, 143.530 299.025 C 145.667 300.798, 150.141 300.528, 151.597 298.537 C 153.522 295.904, 156.054 297.096, 157.501 301.316 C 159.266 306.464, 161.756 309, 165.044 309 C 171.137 309, 175.115 300.876, 171.628 295.555 C 169.251 291.927, 169.565 291.249, 173.971 290.505 C 179.777 289.524, 183 286.624, 183 282.382 C 183 277.450, 179.338 274, 174.104 274 C 168.750 274, 168.122 272.451, 172.441 269.902 C 176.756 267.356, 177.152 264.051, 173.488 261.169 C 170.503 258.822, 167.689 259.308, 165.082 262.623 C 163.058 265.197, 161.022 265.754, 160.964 263.750 C 160.914 262.026, 156.962 257.496, 154.316 256.128 C 151.617 254.734, 151.714 254.732, 149.837 256.250 M 401 309.500 C 401 310.417, 401.484 311.005, 402.075 310.808 C 402.666 310.611, 403.150 310.022, 403.150 309.500 C 403.150 308.978, 402.666 308.389, 402.075 308.192 C 401.484 307.995, 401 308.583, 401 309.500 M 202 327.139 C 192.421 336.047, 183.315 343.169, 176.196 347.323 C 172.729 349.345, 169.579 351.007, 169.196 351.015 C 168.813 351.024, 167.846 351.444, 167.047 351.950 C 165.890 352.681, 166.720 353.951, 171.124 358.184 C 174.164 361.108, 178.333 366.033, 180.388 369.130 C 186.307 378.050, 188.832 389.235, 185.543 391.964 C 184.295 393, 184.573 393.881, 187.475 398.100 C 191.721 404.273, 193.438 412.059, 192.502 420.895 C 191.666 428.780, 190.176 432.654, 185.964 437.895 C 182.968 441.624, 182.859 442.066, 183.679 447.155 C 184.500 452.248, 184.682 452.497, 187.521 452.436 C 191.372 452.353, 194.731 451.777, 210.500 448.497 C 224.013 445.686, 234.529 445.514, 243.054 447.964 C 247.412 449.217, 251 452.412, 251 455.039 C 251 457.586, 248.302 457.575, 246.160 455.019 C 244.940 453.562, 242.530 452.810, 237.061 452.177 C 226.171 450.917, 224.410 451.839, 221.896 460.118 C 220.012 466.319, 219.977 467.150, 221.368 472.478 C 222.188 475.619, 224.038 479.970, 225.478 482.146 C 228.667 486.965, 239.556 494.199, 248.767 497.618 C 278.636 508.705, 289.242 512.318, 294 513.026 C 297.025 513.476, 301.949 514.385, 304.942 515.046 C 308.428 515.816, 315.074 516.064, 323.442 515.737 C 335.153 515.278, 337.325 514.894, 344.500 512.014 C 348.900 510.248, 354.111 507.961, 356.080 506.933 C 360.339 504.708, 370.294 502, 374.210 502 C 376.333 502, 377 502.478, 377 504 C 377 505.624, 376.333 506, 373.454 506 C 371.504 506, 367.896 507.071, 365.437 508.380 C 360.968 510.759, 360.967 510.761, 363.733 511.396 C 369.665 512.760, 389.858 514.959, 396.628 514.979 C 405.097 515.004, 405.800 514.416, 406.982 506.318 C 407.449 503.118, 408.547 498.821, 409.421 496.769 C 411.270 492.431, 418.832 486.094, 425.400 483.380 C 427.902 482.346, 430.087 480.825, 430.256 480 C 431.148 475.658, 428.751 466.452, 424.904 459.443 C 421.578 453.382, 420.879 451.229, 421.261 448.221 C 421.615 445.441, 421.230 443.944, 419.741 442.301 C 418.461 440.889, 417.119 436.769, 415.996 430.801 C 415.033 425.685, 413.298 419.428, 412.140 416.896 C 410.036 412.293, 410.036 412.293, 403.681 411.699 C 400.186 411.373, 396.240 410.681, 394.913 410.162 C 385.887 406.633, 383.008 405.268, 379.179 402.702 C 374.858 399.806, 374.858 399.806, 371.345 403.910 C 366.010 410.143, 360.072 413.190, 352.159 413.757 C 341.275 414.535, 329.754 410.737, 319.433 402.969 C 315.366 399.908, 315.366 399.908, 310.933 402.442 C 299.437 409.013, 281.064 402.127, 270.976 387.466 C 267.978 383.108, 267.978 383.108, 263.739 385.032 C 251.756 390.471, 237.901 383.403, 233.586 369.649 C 231.767 363.851, 231.747 353.123, 233.545 347.250 C 234.184 345.161, 233.929 345, 229.970 345 C 223.873 345, 218.187 340.096, 213.560 330.848 C 211.602 326.934, 210 323.117, 210 322.366 C 210 320.102, 208.791 320.824, 202 327.139 M 114.500 344.382 C 112.850 345.138, 110.166 347.174, 108.535 348.907 C 105.885 351.723, 105.142 351.995, 101.535 351.460 C 95.216 350.523, 92.639 353.587, 91.771 363.069 C 91.444 366.639, 91.444 366.639, 99.472 369.473 C 116.777 375.581, 123.362 382.468, 125.870 397.082 C 126.492 400.702, 127 406.593, 127 410.174 C 127 416.684, 127 416.684, 133.333 423.143 C 142.252 432.239, 145.408 439.129, 145.407 449.500 C 145.405 455.735, 144.919 458.480, 143.201 461.940 C 141.507 465.354, 141.287 466.564, 142.249 467.175 C 144.383 468.530, 147.120 468.089, 150.838 465.791 C 153.568 464.104, 155.996 463.573, 161.125 463.541 C 166.873 463.506, 168.221 463.141, 170.511 461 C 174.677 457.104, 175.409 455.113, 176.026 446 C 176.607 437.443, 177.024 436.241, 182.496 427.361 C 185.026 423.254, 185.492 421.477, 185.496 415.907 C 185.498 412.281, 184.878 408.006, 184.118 406.407 C 180.180 398.119, 178.530 395.346, 176.610 393.782 C 174.585 392.134, 174.568 391.944, 176.172 389.086 C 177.638 386.476, 177.688 385.435, 176.578 380.657 C 174.822 373.104, 170.742 366.590, 165.363 362.750 C 162.859 360.962, 158.485 357.178, 155.643 354.340 C 151.952 350.655, 149.384 348.975, 146.657 348.463 C 144.556 348.069, 141.714 346.623, 140.339 345.248 C 138.094 343.003, 137.368 342.829, 133.170 343.534 C 127.761 344.442, 123.536 344.467, 120 343.611 C 118.625 343.279, 116.150 343.625, 114.500 344.382 M 32.319 351.006 C 29.602 352.100, 22.206 361.333, 21.367 364.676 C 20.309 368.888, 21.945 378.231, 24.504 382.598 C 27.588 387.859, 34.505 392.312, 43.500 394.824 C 47.350 395.900, 52.467 397.842, 54.871 399.140 C 59.636 401.712, 64.348 406.627, 63.448 408.085 C 62.667 409.348, 60 409.239, 60 407.944 C 60 406.262, 51.214 402.797, 48.851 403.547 C 45.684 404.552, 31.240 418.762, 27.043 425 C 15.713 441.844, 12.330 456.103, 15.477 473.757 C 19.261 494.990, 21.362 500.033, 30.142 508.953 C 38.716 517.663, 51.206 521.687, 66.758 520.750 C 80.898 519.898, 91.866 514.570, 98.212 505.471 C 99.736 503.287, 102.132 497.900, 103.537 493.500 C 104.943 489.100, 107.309 483.301, 108.796 480.614 C 111.501 475.727, 112.904 474.686, 123.395 469.787 C 132.277 465.639, 139.050 453.143, 137.577 443.624 C 136.828 438.783, 133.019 430.747, 129.460 426.500 C 126.946 423.500, 126.946 423.500, 127.601 427.750 C 128.142 431.265, 127.977 432, 126.641 432 C 124.063 432, 122.101 425.674, 120.974 413.724 C 120.399 407.632, 119.470 400.589, 118.908 398.074 C 117.608 392.249, 113.786 385.696, 110.201 383.143 C 106.578 380.564, 95.857 376.431, 89.500 375.165 C 65.836 370.450, 61.184 368.616, 53 360.772 C 41.479 349.729, 38.720 348.426, 32.319 351.006 M 440.398 373.745 C 439.218 378.800, 430.709 394.869, 426.486 400.017 C 424.192 402.813, 420.557 406.273, 418.408 407.705 C 416.259 409.137, 414.315 410.461, 414.089 410.648 C 413.864 410.835, 414.395 411.779, 415.271 412.747 C 418.044 415.811, 421.980 425.364, 421.990 429.054 C 421.996 431.295, 423.141 434.408, 425.089 437.479 C 427.492 441.268, 428.075 443.144, 427.716 445.925 C 427.368 448.622, 427.992 450.814, 430.259 454.851 C 431.910 457.794, 434.126 464.079, 435.182 468.819 C 436.238 473.558, 437.220 477.553, 437.363 477.697 C 437.507 477.840, 442.787 476.654, 449.097 475.060 C 457.593 472.914, 464.270 471.975, 474.826 471.439 C 490.233 470.657, 491 470.335, 491 464.647 C 491 461.242, 488.226 450.692, 485.909 445.288 C 484.783 442.660, 483.998 438.511, 483.994 435.167 C 483.987 427.890, 482.550 422.807, 479.462 419.137 C 478.108 417.528, 477 415.320, 477 414.231 C 477 410.112, 475.700 406, 474.398 406 C 472.299 406, 470.402 402.372, 466.662 391.211 C 464.766 385.552, 462.026 379.126, 460.573 376.931 C 457.978 373.009, 457.850 372.951, 453.216 373.546 C 449.976 373.962, 447.332 373.657, 444.770 372.571 C 441.041 370.990, 441.041 370.990, 440.398 373.745 M 464.500 478.500 C 446.985 481.307, 418.545 492.290, 415.821 497.299 C 415.162 498.509, 414.084 502.332, 413.425 505.793 C 411.397 516.450, 415.986 538.130, 423.345 552.647 C 430.053 565.881, 433.101 567.578, 449.630 567.284 C 463.021 567.045, 472.486 565.405, 485.724 561.029 C 503.411 555.184, 513.169 549.235, 518.647 540.957 C 521.179 537.131, 521.264 536.560, 520.701 527.233 C 519.437 506.295, 509.931 484.701, 499.604 479.310 C 495.441 477.136, 475.831 476.683, 464.500 478.500 M 546 491.961 C 538.405 492.457, 534.056 493.280, 530.281 494.933 C 522.743 498.235, 522.522 498.714, 524.934 506.522 C 526.067 510.189, 527.107 515.846, 527.247 519.094 C 527.386 522.342, 527.782 524.999, 528.127 525 C 529.077 525, 544.054 519.120, 547.730 517.303 C 555.368 513.528, 561.939 503.843, 562.303 495.824 C 562.535 490.735, 563.020 490.850, 546 491.961 M 220.599 495.250 C 219.278 503.983, 219.218 507.661, 220.361 509.769 C 225.330 518.938, 264.935 537.963, 291.500 543.942 C 296.450 545.056, 302.711 546.651, 305.413 547.485 C 313.090 549.856, 340.973 553.675, 364.500 555.578 C 375.759 556.489, 404.495 555.859, 411.047 554.558 C 414.594 553.854, 414.594 553.854, 412.381 547.177 C 411.164 543.505, 409.352 536.112, 408.353 530.750 C 406.537 521, 406.537 521, 397.018 520.992 C 386.438 520.983, 367.703 518.819, 358.500 516.543 C 352.542 515.069, 352.458 515.079, 346.500 517.954 C 343.200 519.547, 337.152 521.847, 333.061 523.067 C 326.467 525.032, 324.137 525.221, 312.561 524.732 C 297.791 524.108, 287.646 522.125, 277.621 517.899 C 273.837 516.305, 270.306 515, 269.773 515 C 269.240 515, 262.885 512.112, 255.652 508.582 C 248.418 505.052, 239.350 500.963, 235.500 499.496 C 231.650 498.029, 227.068 495.742, 225.317 494.414 C 223.566 493.086, 221.899 492, 221.612 492 C 221.325 492, 220.869 493.462, 220.599 495.250 M 469.500 497.447 C 450.732 500.606, 440.068 507.514, 441.573 515.537 C 442.323 519.537, 443.009 520.127, 448.500 521.500 C 451.829 522.332, 452.500 522.918, 452.500 524.991 C 452.500 526.875, 451.548 527.977, 448.599 529.507 C 446.454 530.620, 444.252 532.238, 443.707 533.102 C 442.184 535.518, 443.701 541.217, 446.881 545.027 C 449.559 548.235, 450.235 548.498, 457.124 549.012 C 464.094 549.532, 473.154 548.489, 482.779 546.058 C 489.448 544.373, 496.872 539.926, 501.239 535 C 505.228 530.500, 505.228 530.500, 504.744 521.823 C 504.325 514.329, 503.791 512.292, 500.828 506.892 C 496.062 498.206, 493.589 496.585, 484.699 496.317 C 480.740 496.198, 473.900 496.707, 469.500 497.447 M 465.500 503.967 C 455.531 506.165, 453.223 507.105, 449.674 510.412 C 446.234 513.618, 446.533 514.925, 451.043 516.383 C 453.375 517.137, 455.117 518.657, 456.405 521.060 C 458.983 525.871, 457.977 529.345, 453.012 532.778 C 446.160 537.517, 448.280 542.925, 457 542.948 C 471.187 542.986, 489.012 537.435, 495.773 530.872 C 499.370 527.381, 500 526.167, 500 522.723 C 500 516.145, 496.990 508.199, 493.258 504.922 C 490.130 502.175, 489.437 502.006, 481.715 502.102 C 477.197 502.158, 469.900 502.997, 465.500 503.967 M 560.574 514.049 C 555.179 519.610, 549.670 523.149, 542 525.979 C 528.113 531.103, 527.768 531.344, 526.355 536.867 C 525.056 541.941, 520.615 548.641, 514.389 554.917 C 511.739 557.588, 511 559.156, 511 562.108 C 511 564.184, 511.485 566.181, 512.077 566.547 C 513.372 567.348, 522 564.211, 522 562.940 C 522 562.447, 524.412 559.594, 527.360 556.599 C 531.246 552.650, 533.926 550.844, 537.110 550.029 C 544.365 548.172, 547.946 545.769, 551.562 540.331 C 553.453 537.487, 555 534.846, 555 534.461 C 555 532.216, 562.495 522.119, 565.703 520.042 C 567.791 518.690, 569.664 517.476, 569.864 517.344 C 570.410 516.986, 565.942 510, 565.168 510.001 C 564.801 510.001, 562.733 511.823, 560.574 514.049 M 213.931 519.250 C 213.133 519.938, 211.407 521.723, 210.095 523.219 C 207.710 525.937, 207.710 525.937, 211.115 529.719 C 212.987 531.798, 215.865 535.637, 217.509 538.248 C 219.154 540.860, 220.950 543.001, 221.500 543.007 C 225.197 543.048, 242.175 554.109, 244.130 557.750 C 244.805 559.007, 246.283 560, 247.481 560 C 252.139 560, 273.724 566.272, 277.473 568.715 C 278.600 569.450, 282.424 570, 286.402 570 C 290.228 570, 294.740 570.434, 296.429 570.965 C 298.118 571.496, 300.639 572.155, 302.030 572.429 C 303.422 572.703, 308.325 575.190, 312.925 577.955 C 320.150 582.297, 321.711 582.873, 324.385 582.180 C 329.935 580.742, 337.972 582.718, 344.159 587.044 C 348.965 590.404, 350.592 591, 354.954 591 C 357.779 591, 364.458 591.647, 369.795 592.438 C 397.577 596.553, 404.038 596.250, 412.826 590.415 C 416.166 588.198, 420.150 586.545, 423.454 586.008 C 426.361 585.534, 430.485 584.700, 432.620 584.153 C 434.754 583.607, 438.870 582.855, 441.766 582.484 C 445.455 582.010, 447.338 581.238, 448.051 579.904 C 448.970 578.188, 448.697 578, 445.285 577.999 C 437.916 577.998, 421.307 567.692, 419.500 562 C 418.655 559.339, 417.051 559.053, 408.872 560.106 C 404.817 560.628, 387.325 561.085, 370 561.122 C 341.982 561.181, 337.173 560.951, 326.500 559.040 C 284.514 551.525, 250.343 539.465, 225.259 523.308 C 216.248 517.504, 216.043 517.431, 213.931 519.250 M 568.407 525.939 C 566.156 527.563, 561.808 532.629, 558.744 537.196 C 551.512 547.979, 547.328 552.118, 539.718 556.015 C 535.949 557.945, 530.940 561.820, 527 565.854 C 521.989 570.984, 519.409 572.820, 515.739 573.868 C 512.035 574.926, 510.659 574.962, 509.539 574.033 C 507.222 572.109, 503.899 564.426, 504.598 562.606 C 505.169 561.116, 504.926 561.070, 502.370 562.180 C 500.791 562.866, 498.600 563.982, 497.500 564.662 C 493.325 567.241, 467.730 575.386, 460.171 576.541 C 456.265 577.138, 455.666 577.613, 454.039 581.409 C 451.075 588.324, 445.912 590.572, 429.830 591.947 C 421.860 592.628, 419.750 593.167, 417.830 595.012 C 416.548 596.244, 413.025 598.426, 410 599.863 C 405.043 602.217, 403.414 602.464, 393.500 602.367 C 386.208 602.296, 379.129 601.516, 372.500 600.053 C 367 598.840, 359.575 597.382, 356 596.812 C 346.398 595.283, 340.105 593.182, 336.193 590.198 C 333.206 587.920, 331.895 587.584, 326.948 587.829 C 321.893 588.080, 320.188 587.614, 313.092 584.046 C 308.641 581.809, 305 580.263, 305 580.611 C 305 580.960, 304.385 580.734, 303.632 580.110 C 302.880 579.486, 297.593 578.592, 291.882 578.125 C 282.865 577.387, 280.253 576.720, 272.009 573.051 C 264.822 569.853, 260.560 568.625, 254.454 567.995 C 245.340 567.055, 241.573 565.281, 232.778 557.787 C 229.349 554.865, 224.769 552.125, 221.348 550.948 C 214.582 548.620, 212.843 547.188, 208.433 540.314 C 206.603 537.461, 204.212 534.649, 203.119 534.064 C 199.830 532.304, 191.996 532.824, 187.259 535.116 C 183.613 536.882, 182.404 538.255, 179.975 543.397 C 177.662 548.292, 176.078 550.173, 172.286 552.531 C 159.573 560.435, 154.584 568.020, 154.548 579.500 C 154.521 588.247, 156.959 595.169, 162.595 602.351 C 165.864 606.516, 169.040 608.956, 176.909 613.352 C 182.471 616.458, 187.579 619.004, 188.261 619.009 C 190.728 619.028, 199.774 625.075, 213.198 635.679 C 228.914 648.095, 237.271 652.996, 242.748 653.009 C 245.721 653.016, 247.847 654.063, 252.982 658.049 C 263.375 666.115, 269.180 668.539, 277.500 668.285 C 286.025 668.024, 293.373 669.828, 299.735 673.742 C 305.771 677.456, 309.194 678.557, 320.927 680.559 C 327.278 681.643, 332.564 681.945, 337.131 681.487 C 342.484 680.949, 345.231 681.220, 350.204 682.773 C 364.602 687.271, 377.184 689.277, 391.500 689.358 C 401.672 689.415, 404.643 689.050, 411 686.962 C 417.525 684.820, 420.321 684.500, 432.500 684.500 C 448.575 684.500, 455.734 682.690, 466.523 675.899 C 476.375 669.697, 485.078 666.091, 495.587 663.855 C 516.223 659.466, 530.122 651.192, 549.306 631.877 C 558.178 622.944, 564.865 617.089, 568.019 615.491 C 575.042 611.932, 580 607.305, 580 604.310 C 580 602.639, 581.944 599.803, 585.946 595.635 C 594.924 586.285, 595.709 580.305, 589.524 568.384 C 588.741 566.874, 588.598 564.329, 589.099 560.805 C 590.644 549.949, 590.092 538.875, 587.719 533.093 C 585.158 526.851, 582.137 524.274, 576.500 523.521 C 573.169 523.076, 571.815 523.481, 568.407 525.939 M 559.810 633.250 C 556.824 635.587, 551.707 640.374, 548.440 643.886 C 534.014 659.395, 517.111 669.545, 501 672.372 C 484.802 675.215, 477.387 677.692, 472.682 681.833 C 468.851 685.205, 448.625 696, 446.139 696 C 444.019 696, 444.984 697.630, 450.326 703.073 C 459.297 712.215, 478.184 721.005, 492.041 722.487 C 500.584 723.401, 512.879 721.608, 518.768 718.591 C 540.611 707.399, 562.345 667.802, 565.337 633.750 C 565.567 631.138, 565.639 629, 565.497 629 C 565.356 629, 562.797 630.913, 559.810 633.250 M 209.548 645.250 C 207.814 650.813, 206.837 661.250, 207.434 667.838 C 208.407 678.577, 209.674 684.054, 213.767 695.222 C 218.159 707.207, 221.441 711.495, 226.890 712.366 C 230.855 713, 235 716.708, 235 719.621 C 235 720.365, 236.463 721.584, 238.250 722.332 C 240.037 723.079, 242.118 724.435, 242.872 725.345 C 243.627 726.255, 245.294 727, 246.575 727 C 249.989 727, 253.875 729.030, 254.554 731.169 C 255.251 733.366, 260.162 735.602, 266.316 736.525 C 270.147 737.099, 274.777 736.739, 293.478 734.414 C 305.955 732.862, 331.567 724.871, 341.788 719.340 C 354.283 712.579, 369.200 700.600, 367.213 698.925 C 366.440 698.273, 357.508 695.146, 349.500 692.724 C 346.120 691.701, 339.854 691.182, 330.163 691.121 C 317.431 691.041, 315.025 690.743, 308.663 688.462 C 304.723 687.050, 299.908 684.850, 297.962 683.573 C 293.625 680.728, 291.297 680.198, 278.132 679.057 C 266.187 678.021, 258.642 674.958, 250.595 667.875 C 246.579 664.340, 245.165 663.697, 241.124 663.569 C 233.857 663.338, 225.753 658.850, 218.136 650.837 C 211.512 643.869, 210.237 643.039, 209.548 645.250 M 183 666.940 C 172.882 672.258, 165.786 681.673, 166.601 688.700 C 166.805 690.459, 166.528 692.173, 165.986 692.509 C 164.539 693.403, 164.866 703.879, 166.483 708.417 C 167.685 711.790, 167.679 712.720, 166.439 715.117 C 162.865 722.029, 166.926 735.288, 173.908 739.500 C 179.934 743.136, 186.206 749.401, 191.152 756.728 C 200.169 770.085, 208.910 776, 219.633 776 C 222.423 776, 225.221 776.712, 226.846 777.834 C 233.623 782.518, 246.646 785.291, 251.093 782.997 C 252.417 782.314, 254.625 780.736, 256 779.490 C 258.046 777.635, 259.962 777.145, 266.552 776.789 C 276.510 776.251, 282.101 773.832, 283.399 769.500 C 283.955 767.644, 286.150 765.166, 289.158 763 C 294.846 758.905, 298.103 753.035, 298.338 746.458 C 298.500 741.910, 298.500 741.910, 280 741.632 C 259.651 741.326, 253.295 740.072, 249.017 735.518 C 247.460 733.860, 245.575 733, 243.500 733 C 241.411 733, 239.537 732.136, 237.941 730.438 C 236.617 729.028, 234.111 726.996, 232.371 725.920 C 230.632 724.845, 228.924 722.835, 228.577 721.452 C 228.149 719.745, 227.064 718.763, 225.191 718.388 C 221.318 717.614, 218.875 715.401, 214.274 708.500 C 205.549 695.414, 202.382 687.203, 200.579 673 C 199.500 664.500, 199.500 664.500, 194 664.275 C 189.590 664.094, 187.410 664.622, 183 666.940 M 549.673 697.315 C 542.730 706.379, 530.865 717.883, 525 721.237 C 509.823 729.917, 485.001 730.229, 466.598 721.972 C 461.091 719.501, 442.594 707.770, 441.556 706.090 C 440.536 704.439, 437.503 704.784, 435.745 706.750 C 434.884 707.712, 433.409 711.167, 432.467 714.427 C 431.525 717.687, 429.912 721.737, 428.881 723.427 C 426.370 727.546, 426.515 729.954, 429.521 734.029 C 430.908 735.909, 431.823 738.018, 431.555 738.716 C 430.996 740.174, 434.231 743.505, 438.250 745.611 C 441.133 747.121, 441.783 748.572, 439.864 749.212 C 436.179 750.440, 449.146 759.944, 457.113 761.854 C 459.651 762.462, 466.851 762.924, 473.113 762.879 C 479.376 762.834, 485.705 763.270, 487.178 763.847 C 488.650 764.424, 493.546 765.596, 498.057 766.451 C 507.796 768.299, 512.454 767.466, 518.306 762.831 C 521.900 759.984, 522.446 759.855, 528.136 760.516 C 536.013 761.430, 541.844 759.755, 546.886 755.130 C 551.282 751.098, 556 744.472, 556 742.331 C 556 741.567, 557.832 738.623, 560.072 735.790 C 566.199 728.038, 568 723.875, 568 717.462 C 568 712.196, 567.749 711.610, 564 708.114 C 560.417 704.772, 560 703.888, 560 699.626 C 560 697.009, 559.563 694.051, 559.028 693.052 C 556.984 689.234, 555.264 690.018, 549.673 697.315 M 163.219 746.013 C 161.568 747.017, 159.911 748.336, 159.535 748.944 C 159.159 749.552, 155.847 751.564, 152.176 753.414 C 142.374 758.354, 134.360 767.880, 130.580 779.084 C 127.922 786.961, 125.011 807.060, 125.005 817.566 C 124.996 834.886, 127.816 844.624, 134.854 851.575 C 147.784 864.344, 171.453 873.221, 186.717 871.026 C 189.898 870.568, 193.850 869.860, 195.500 869.453 C 200.375 868.249, 209.689 863.236, 212.921 860.077 C 214.572 858.463, 216.552 856.773, 217.320 856.321 C 219.463 855.062, 226.661 841.173, 228.371 835 C 229.208 831.975, 230.409 823.472, 231.038 816.105 C 231.668 808.737, 232.812 800.637, 233.581 798.105 C 235.519 791.719, 235.424 791.268, 231.750 789.389 C 229.963 788.474, 226.925 786.491, 225 784.982 C 221.938 782.582, 220.858 782.301, 216.367 782.735 C 203.665 783.964, 192.684 775.913, 184.274 759.208 C 180.029 750.776, 179.924 750.670, 172.116 746.978 C 166.280 744.217, 166.188 744.207, 163.219 746.013 M 541 766.601 C 536.008 768.450, 533.390 768.869, 529.716 768.406 C 525.396 767.861, 524.427 768.145, 519.716 771.333 C 512.049 776.521, 507.485 777.588, 499.871 775.973 C 496.453 775.247, 491.486 773.607, 488.833 772.327 C 483.676 769.839, 477.421 769.440, 467 770.935 C 461.120 771.779, 454.789 770.454, 447.881 766.936 C 444.291 765.108, 444.245 765.111, 442.178 767.310 C 439.304 770.369, 437 776.239, 437 780.501 C 437 784.843, 440.798 792.575, 444.657 796.089 C 450.644 801.540, 457.571 804.912, 476.497 811.591 C 479.393 812.613, 483.598 815.320, 486.497 818.029 C 495.246 826.204, 506.631 831.413, 524 835.190 C 537.239 838.069, 576.018 838.360, 586 835.655 C 601.354 831.495, 609.926 824.493, 612.021 814.399 C 613.552 807.025, 612.812 797.211, 610.439 793.410 C 602.497 780.692, 591.150 773.634, 571.208 769.008 C 563.509 767.222, 556.338 768.454, 546.713 773.217 C 542.196 775.451, 537.702 777.971, 536.726 778.816 C 533.982 781.194, 532.197 778.803, 534.784 776.216 C 537.108 773.892, 548.619 767, 550.176 767 C 550.856 767, 550.792 766.455, 550 765.500 C 548.502 763.696, 549.016 763.633, 541 766.601 M 174.762 787.100 C 171.606 787.448, 166.964 788.310, 164.446 789.015 C 160.611 790.089, 160.087 790.515, 161.213 791.642 C 162.235 792.664, 163.391 792.748, 166.023 791.994 C 174 789.706, 189.247 792.331, 199.325 797.728 C 205.110 800.827, 215 810.207, 215 812.596 C 215 813.543, 215.681 814.007, 216.750 813.787 C 219.083 813.308, 218.516 810.611, 215.013 805.519 C 206.185 792.688, 190.238 785.390, 174.762 787.100 M 438.324 800.291 C 438.634 802.376, 439.848 805.636, 441.022 807.536 C 445.552 814.865, 466.018 822.963, 477.820 822.097 C 478.583 822.041, 479.004 821.095, 478.820 819.853 C 478.562 818.122, 477.049 817.280, 471 815.504 C 458.021 811.693, 444.143 804.131, 439.130 798.138 C 437.936 796.711, 437.833 796.988, 438.324 800.291" stroke="#000000" /></svg>
